<?xml version="1.0" encoding="UTF-8" standalone="no"?>
<!DOCTYPE svg PUBLIC "-//W3C//DTD SVG 1.1//EN"
 "http://www.w3.org/Graphics/SVG/1.1/DTD/svg11.dtd">
<!-- Generated by graphviz version 2.47.3 (20210619.1520)
 -->
<!-- Title: dependencies Pages: 1 -->
<svg width="4521pt" height="247pt"
 viewBox="0.00 0.00 4521.00 246.80" xmlns="http://www.w3.org/2000/svg" xmlns:xlink="http://www.w3.org/1999/xlink">
<g id="graph0" class="graph" transform="scale(1 1) rotate(0) translate(4 242.8)">
<title>dependencies</title>
<polygon fill="white" stroke="transparent" points="-4,4 -4,-242.8 4517,-242.8 4517,4 -4,4"/>
<text text-anchor="middle" x="2256.5" y="-8.2" font-family="sans-serif" font-size="14.00">dependencies</text>
<g id="clust1" class="cluster">
<title>cluster_AppModule</title>
<polygon fill="none" stroke="black" stroke-dasharray="1,5" points="8,-32.8 8,-230.8 4505,-230.8 4505,-32.8 8,-32.8"/>
</g>
<g id="clust27" class="cluster">
<title>cluster_AppModule_imports</title>
<polygon fill="none" stroke="black" points="4353,-40.8 4353,-92.8 4497,-92.8 4497,-40.8 4353,-40.8"/>
</g>
<g id="clust29" class="cluster">
<title>cluster_AppModule_bootstrap</title>
<polygon fill="none" stroke="black" points="2213,-170.8 2213,-222.8 2337,-222.8 2337,-170.8 2213,-170.8"/>
</g>
<g id="clust2" class="cluster">
<title>cluster_AppModule_declarations</title>
<polygon fill="none" stroke="black" points="16,-40.8 16,-92.8 4345,-92.8 4345,-40.8 16,-40.8"/>
</g>
<!-- AppComponent -->
<g id="node1" class="node">
<title>AppComponent</title>
<polygon fill="#ffffb3" stroke="black" points="4336.94,-84.8 4231.06,-84.8 4231.06,-48.8 4336.94,-48.8 4336.94,-84.8"/>
<text text-anchor="middle" x="4284" y="-62.6" font-family="Times,serif" font-size="14.00">AppComponent</text>
</g>
<!-- AppModule -->
<g id="node25" class="node">
<title>AppModule</title>
<polygon fill="#8dd3c7" stroke="black" points="2316.66,-149.8 2313.66,-153.8 2292.66,-153.8 2289.66,-149.8 2233.34,-149.8 2233.34,-113.8 2316.66,-113.8 2316.66,-149.8"/>
<text text-anchor="middle" x="2275" y="-127.6" font-family="Times,serif" font-size="14.00">AppModule</text>
</g>
<!-- AppComponent&#45;&gt;AppModule -->
<g id="edge1" class="edge">
<title>AppComponent&#45;&gt;AppModule</title>
<path fill="none" stroke="black" d="M4284,-84.89C4284,-107.93 4284,-144.8 4284,-144.8 4284,-144.8 2326.96,-144.8 2326.96,-144.8"/>
<polygon fill="black" stroke="black" points="2326.96,-141.3 2316.96,-144.8 2326.96,-148.3 2326.96,-141.3"/>
</g>
<!-- AtribuirCargoAoMentorComponent -->
<g id="node2" class="node">
<title>AtribuirCargoAoMentorComponent</title>
<polygon fill="#ffffb3" stroke="black" points="4213.46,-84.8 3994.54,-84.8 3994.54,-48.8 4213.46,-48.8 4213.46,-84.8"/>
<text text-anchor="middle" x="4104" y="-62.6" font-family="Times,serif" font-size="14.00">AtribuirCargoAoMentorComponent</text>
</g>
<!-- AtribuirCargoAoMentorComponent&#45;&gt;AppModule -->
<g id="edge2" class="edge">
<title>AtribuirCargoAoMentorComponent&#45;&gt;AppModule</title>
<path fill="none" stroke="black" d="M4104,-84.96C4104,-107.15 4104,-141.8 4104,-141.8 4104,-141.8 2327.08,-141.8 2327.08,-141.8"/>
<polygon fill="black" stroke="black" points="2327.08,-138.3 2317.08,-141.8 2327.08,-145.3 2327.08,-138.3"/>
</g>
<!-- AtribuirCargoComponent -->
<g id="node3" class="node">
<title>AtribuirCargoComponent</title>
<polygon fill="#ffffb3" stroke="black" points="3976.14,-84.8 3815.86,-84.8 3815.86,-48.8 3976.14,-48.8 3976.14,-84.8"/>
<text text-anchor="middle" x="3896" y="-62.6" font-family="Times,serif" font-size="14.00">AtribuirCargoComponent</text>
</g>
<!-- AtribuirCargoComponent&#45;&gt;AppModule -->
<g id="edge3" class="edge">
<title>AtribuirCargoComponent&#45;&gt;AppModule</title>
<path fill="none" stroke="black" d="M3896,-84.97C3896,-106.3 3896,-138.8 3896,-138.8 3896,-138.8 2326.7,-138.8 2326.7,-138.8"/>
<polygon fill="black" stroke="black" points="2326.7,-135.3 2316.7,-138.8 2326.7,-142.3 2326.7,-135.3"/>
</g>
<!-- CadastrarBoletoComponent -->
<g id="node4" class="node">
<title>CadastrarBoletoComponent</title>
<polygon fill="#ffffb3" stroke="black" points="3798.3,-84.8 3625.7,-84.8 3625.7,-48.8 3798.3,-48.8 3798.3,-84.8"/>
<text text-anchor="middle" x="3712" y="-62.6" font-family="Times,serif" font-size="14.00">CadastrarBoletoComponent</text>
</g>
<!-- CadastrarBoletoComponent&#45;&gt;AppModule -->
<g id="edge4" class="edge">
<title>CadastrarBoletoComponent&#45;&gt;AppModule</title>
<path fill="none" stroke="black" d="M3712,-84.83C3712,-105.57 3712,-136.8 3712,-136.8 3712,-136.8 2326.84,-136.8 2326.84,-136.8"/>
<polygon fill="black" stroke="black" points="2326.84,-133.3 2316.84,-136.8 2326.84,-140.3 2326.84,-133.3"/>
</g>
<!-- CadastrarMentorComponent -->
<g id="node5" class="node">
<title>CadastrarMentorComponent</title>
<polygon fill="#ffffb3" stroke="black" points="3608.18,-84.8 3431.82,-84.8 3431.82,-48.8 3608.18,-48.8 3608.18,-84.8"/>
<text text-anchor="middle" x="3520" y="-62.6" font-family="Times,serif" font-size="14.00">CadastrarMentorComponent</text>
</g>
<!-- CadastrarMentorComponent&#45;&gt;AppModule -->
<g id="edge5" class="edge">
<title>CadastrarMentorComponent&#45;&gt;AppModule</title>
<path fill="none" stroke="black" d="M3520,-85.11C3520,-104.95 3520,-133.8 3520,-133.8 3520,-133.8 2326.78,-133.8 2326.78,-133.8"/>
<polygon fill="black" stroke="black" points="2326.78,-130.3 2316.78,-133.8 2326.78,-137.3 2326.78,-130.3"/>
</g>
<!-- CadastroCargoComponent -->
<g id="node6" class="node">
<title>CadastroCargoComponent</title>
<polygon fill="#ffffb3" stroke="black" points="3413.81,-84.8 3248.19,-84.8 3248.19,-48.8 3413.81,-48.8 3413.81,-84.8"/>
<text text-anchor="middle" x="3331" y="-62.6" font-family="Times,serif" font-size="14.00">CadastroCargoComponent</text>
</g>
<!-- CadastroCargoComponent&#45;&gt;AppModule -->
<g id="edge6" class="edge">
<title>CadastroCargoComponent&#45;&gt;AppModule</title>
<path fill="none" stroke="black" d="M3331,-84.97C3331,-103.89 3331,-130.8 3331,-130.8 3331,-130.8 2326.72,-130.8 2326.72,-130.8"/>
<polygon fill="black" stroke="black" points="2326.72,-127.3 2316.72,-130.8 2326.72,-134.3 2326.72,-127.3"/>
</g>
<!-- CadastroFuncComponent -->
<g id="node7" class="node">
<title>CadastroFuncComponent</title>
<polygon fill="#ffffb3" stroke="black" points="3230.59,-84.8 3071.41,-84.8 3071.41,-48.8 3230.59,-48.8 3230.59,-84.8"/>
<text text-anchor="middle" x="3151" y="-62.6" font-family="Times,serif" font-size="14.00">CadastroFuncComponent</text>
</g>
<!-- CadastroFuncComponent&#45;&gt;AppModule -->
<g id="edge7" class="edge">
<title>CadastroFuncComponent&#45;&gt;AppModule</title>
<path fill="none" stroke="black" d="M3151,-85.1C3151,-103.07 3151,-127.8 3151,-127.8 3151,-127.8 2326.66,-127.8 2326.66,-127.8"/>
<polygon fill="black" stroke="black" points="2326.66,-124.3 2316.66,-127.8 2326.66,-131.3 2326.66,-124.3"/>
</g>
<!-- EdicaoBoletoComponent -->
<g id="node8" class="node">
<title>EdicaoBoletoComponent</title>
<polygon fill="#ffffb3" stroke="black" points="3053.54,-84.8 2896.46,-84.8 2896.46,-48.8 3053.54,-48.8 3053.54,-84.8"/>
<text text-anchor="middle" x="2975" y="-62.6" font-family="Times,serif" font-size="14.00">EdicaoBoletoComponent</text>
</g>
<!-- EdicaoBoletoComponent&#45;&gt;AppModule -->
<g id="edge8" class="edge">
<title>EdicaoBoletoComponent&#45;&gt;AppModule</title>
<path fill="none" stroke="black" d="M2975,-84.82C2975,-102.17 2975,-125.8 2975,-125.8 2975,-125.8 2326.69,-125.8 2326.69,-125.8"/>
<polygon fill="black" stroke="black" points="2326.69,-122.3 2316.69,-125.8 2326.69,-129.3 2326.69,-122.3"/>
</g>
<!-- EdicaoCargoComponent -->
<g id="node9" class="node">
<title>EdicaoCargoComponent</title>
<polygon fill="#ffffb3" stroke="black" points="2878.42,-84.8 2723.58,-84.8 2723.58,-48.8 2878.42,-48.8 2878.42,-84.8"/>
<text text-anchor="middle" x="2801" y="-62.6" font-family="Times,serif" font-size="14.00">EdicaoCargoComponent</text>
</g>
<!-- EdicaoCargoComponent&#45;&gt;AppModule -->
<g id="edge9" class="edge">
<title>EdicaoCargoComponent&#45;&gt;AppModule</title>
<path fill="none" stroke="black" d="M2801,-84.83C2801,-101.2 2801,-122.8 2801,-122.8 2801,-122.8 2326.71,-122.8 2326.71,-122.8"/>
<polygon fill="black" stroke="black" points="2326.71,-119.3 2316.71,-122.8 2326.71,-126.3 2326.71,-119.3"/>
</g>
<!-- EdicaoFuncComponent -->
<g id="node10" class="node">
<title>EdicaoFuncComponent</title>
<polygon fill="#ffffb3" stroke="black" points="2706.2,-84.8 2557.8,-84.8 2557.8,-48.8 2706.2,-48.8 2706.2,-84.8"/>
<text text-anchor="middle" x="2632" y="-62.6" font-family="Times,serif" font-size="14.00">EdicaoFuncComponent</text>
</g>
<!-- EdicaoFuncComponent&#45;&gt;AppModule -->
<g id="edge10" class="edge">
<title>EdicaoFuncComponent&#45;&gt;AppModule</title>
<path fill="none" stroke="black" d="M2632,-85.04C2632,-100.37 2632,-119.8 2632,-119.8 2632,-119.8 2327,-119.8 2327,-119.8"/>
<polygon fill="black" stroke="black" points="2327,-116.3 2317,-119.8 2327,-123.3 2327,-116.3"/>
</g>
<!-- EdicaoMentorComponent -->
<g id="node11" class="node">
<title>EdicaoMentorComponent</title>
<polygon fill="#ffffb3" stroke="black" points="2539.92,-84.8 2378.08,-84.8 2378.08,-48.8 2539.92,-48.8 2539.92,-84.8"/>
<text text-anchor="middle" x="2459" y="-62.6" font-family="Times,serif" font-size="14.00">EdicaoMentorComponent</text>
</g>
<!-- EdicaoMentorComponent&#45;&gt;AppModule -->
<g id="edge11" class="edge">
<title>EdicaoMentorComponent&#45;&gt;AppModule</title>
<path fill="none" stroke="black" d="M2459,-84.85C2459,-99.17 2459,-116.8 2459,-116.8 2459,-116.8 2326.75,-116.8 2326.75,-116.8"/>
<polygon fill="black" stroke="black" points="2326.75,-113.3 2316.75,-116.8 2326.75,-120.3 2326.75,-113.3"/>
</g>
<!-- ExclusaoBoletoComponent -->
<g id="node12" class="node">
<title>ExclusaoBoletoComponent</title>
<polygon fill="#ffffb3" stroke="black" points="2359.98,-84.8 2190.02,-84.8 2190.02,-48.8 2359.98,-48.8 2359.98,-84.8"/>
<text text-anchor="middle" x="2275" y="-62.6" font-family="Times,serif" font-size="14.00">ExclusaoBoletoComponent</text>
</g>
<!-- ExclusaoBoletoComponent&#45;&gt;AppModule -->
<g id="edge12" class="edge">
<title>ExclusaoBoletoComponent&#45;&gt;AppModule</title>
<path fill="none" stroke="black" d="M2275,-84.91C2275,-84.91 2275,-103.79 2275,-103.79"/>
<polygon fill="black" stroke="black" points="2271.5,-103.79 2275,-113.79 2278.5,-103.79 2271.5,-103.79"/>
</g>
<!-- ExclusaoCargoComponent -->
<g id="node13" class="node">
<title>ExclusaoCargoComponent</title>
<polygon fill="#ffffb3" stroke="black" points="2172.36,-84.8 2005.64,-84.8 2005.64,-48.8 2172.36,-48.8 2172.36,-84.8"/>
<text text-anchor="middle" x="2089" y="-62.6" font-family="Times,serif" font-size="14.00">ExclusaoCargoComponent</text>
</g>
<!-- ExclusaoCargoComponent&#45;&gt;AppModule -->
<g id="edge13" class="edge">
<title>ExclusaoCargoComponent&#45;&gt;AppModule</title>
<path fill="none" stroke="black" d="M2089,-84.85C2089,-99.17 2089,-116.8 2089,-116.8 2089,-116.8 2223.26,-116.8 2223.26,-116.8"/>
<polygon fill="black" stroke="black" points="2223.26,-120.3 2233.26,-116.8 2223.26,-113.3 2223.26,-120.3"/>
</g>
<!-- ExclusaoFuncComponent -->
<g id="node14" class="node">
<title>ExclusaoFuncComponent</title>
<polygon fill="#ffffb3" stroke="black" points="1987.15,-84.8 1826.85,-84.8 1826.85,-48.8 1987.15,-48.8 1987.15,-84.8"/>
<text text-anchor="middle" x="1907" y="-62.6" font-family="Times,serif" font-size="14.00">ExclusaoFuncComponent</text>
</g>
<!-- ExclusaoFuncComponent&#45;&gt;AppModule -->
<g id="edge14" class="edge">
<title>ExclusaoFuncComponent&#45;&gt;AppModule</title>
<path fill="none" stroke="black" d="M1907,-85.04C1907,-100.37 1907,-119.8 1907,-119.8 1907,-119.8 2223.14,-119.8 2223.14,-119.8"/>
<polygon fill="black" stroke="black" points="2223.14,-123.3 2233.14,-119.8 2223.14,-116.3 2223.14,-123.3"/>
</g>
<!-- ExclusaoMentorComponent -->
<g id="node15" class="node">
<title>ExclusaoMentorComponent</title>
<polygon fill="#ffffb3" stroke="black" points="1808.86,-84.8 1635.14,-84.8 1635.14,-48.8 1808.86,-48.8 1808.86,-84.8"/>
<text text-anchor="middle" x="1722" y="-62.6" font-family="Times,serif" font-size="14.00">ExclusaoMentorComponent</text>
</g>
<!-- ExclusaoMentorComponent&#45;&gt;AppModule -->
<g id="edge15" class="edge">
<title>ExclusaoMentorComponent&#45;&gt;AppModule</title>
<path fill="none" stroke="black" d="M1722,-84.83C1722,-101.2 1722,-122.8 1722,-122.8 1722,-122.8 2222.98,-122.8 2222.98,-122.8"/>
<polygon fill="black" stroke="black" points="2222.98,-126.3 2232.98,-122.8 2222.98,-119.3 2222.98,-126.3"/>
</g>
<!-- HeaderComponent -->
<g id="node16" class="node">
<title>HeaderComponent</title>
<polygon fill="#ffffb3" stroke="black" points="1616.74,-84.8 1495.26,-84.8 1495.26,-48.8 1616.74,-48.8 1616.74,-84.8"/>
<text text-anchor="middle" x="1556" y="-62.6" font-family="Times,serif" font-size="14.00">HeaderComponent</text>
</g>
<!-- HeaderComponent&#45;&gt;AppModule -->
<g id="edge16" class="edge">
<title>HeaderComponent&#45;&gt;AppModule</title>
<path fill="none" stroke="black" d="M1556,-84.82C1556,-102.17 1556,-125.8 1556,-125.8 1556,-125.8 2223.24,-125.8 2223.24,-125.8"/>
<polygon fill="black" stroke="black" points="2223.24,-129.3 2233.24,-125.8 2223.24,-122.3 2223.24,-129.3"/>
</g>
<!-- HomeComponent -->
<g id="node17" class="node">
<title>HomeComponent</title>
<polygon fill="#ffffb3" stroke="black" points="1476.55,-84.8 1361.45,-84.8 1361.45,-48.8 1476.55,-48.8 1476.55,-84.8"/>
<text text-anchor="middle" x="1419" y="-62.6" font-family="Times,serif" font-size="14.00">HomeComponent</text>
</g>
<!-- HomeComponent&#45;&gt;AppModule -->
<g id="edge17" class="edge">
<title>HomeComponent&#45;&gt;AppModule</title>
<path fill="none" stroke="black" d="M1419,-85.1C1419,-103.07 1419,-127.8 1419,-127.8 1419,-127.8 2223.13,-127.8 2223.13,-127.8"/>
<polygon fill="black" stroke="black" points="2223.13,-131.3 2233.13,-127.8 2223.13,-124.3 2223.13,-131.3"/>
</g>
<!-- ListaBoletosFuncComponent -->
<g id="node18" class="node">
<title>ListaBoletosFuncComponent</title>
<polygon fill="#ffffb3" stroke="black" points="1343.1,-84.8 1162.9,-84.8 1162.9,-48.8 1343.1,-48.8 1343.1,-84.8"/>
<text text-anchor="middle" x="1253" y="-62.6" font-family="Times,serif" font-size="14.00">ListaBoletosFuncComponent</text>
</g>
<!-- ListaBoletosFuncComponent&#45;&gt;AppModule -->
<g id="edge18" class="edge">
<title>ListaBoletosFuncComponent&#45;&gt;AppModule</title>
<path fill="none" stroke="black" d="M1253,-84.97C1253,-103.89 1253,-130.8 1253,-130.8 1253,-130.8 2223.03,-130.8 2223.03,-130.8"/>
<polygon fill="black" stroke="black" points="2223.03,-134.3 2233.03,-130.8 2223.03,-127.3 2223.03,-134.3"/>
</g>
<!-- ListaCargoComponent -->
<g id="node19" class="node">
<title>ListaCargoComponent</title>
<polygon fill="#ffffb3" stroke="black" points="1144.54,-84.8 1001.46,-84.8 1001.46,-48.8 1144.54,-48.8 1144.54,-84.8"/>
<text text-anchor="middle" x="1073" y="-62.6" font-family="Times,serif" font-size="14.00">ListaCargoComponent</text>
</g>
<!-- ListaCargoComponent&#45;&gt;AppModule -->
<g id="edge19" class="edge">
<title>ListaCargoComponent&#45;&gt;AppModule</title>
<path fill="none" stroke="black" d="M1073,-85.11C1073,-104.95 1073,-133.8 1073,-133.8 1073,-133.8 2223.28,-133.8 2223.28,-133.8"/>
<polygon fill="black" stroke="black" points="2223.28,-137.3 2233.28,-133.8 2223.28,-130.3 2223.28,-137.3"/>
</g>
<!-- ListaFuncComCargoComponent -->
<g id="node20" class="node">
<title>ListaFuncComCargoComponent</title>
<polygon fill="#ffffb3" stroke="black" points="983.26,-84.8 784.74,-84.8 784.74,-48.8 983.26,-48.8 983.26,-84.8"/>
<text text-anchor="middle" x="884" y="-62.6" font-family="Times,serif" font-size="14.00">ListaFuncComCargoComponent</text>
</g>
<!-- ListaFuncComCargoComponent&#45;&gt;AppModule -->
<g id="edge20" class="edge">
<title>ListaFuncComCargoComponent&#45;&gt;AppModule</title>
<path fill="none" stroke="black" d="M884,-84.83C884,-105.57 884,-136.8 884,-136.8 884,-136.8 2222.99,-136.8 2222.99,-136.8"/>
<polygon fill="black" stroke="black" points="2222.99,-140.3 2232.99,-136.8 2222.99,-133.3 2222.99,-140.3"/>
</g>
<!-- ListaFuncDoCargoComponent -->
<g id="node21" class="node">
<title>ListaFuncDoCargoComponent</title>
<polygon fill="#ffffb3" stroke="black" points="766.14,-84.8 577.86,-84.8 577.86,-48.8 766.14,-48.8 766.14,-84.8"/>
<text text-anchor="middle" x="672" y="-62.6" font-family="Times,serif" font-size="14.00">ListaFuncDoCargoComponent</text>
</g>
<!-- ListaFuncDoCargoComponent&#45;&gt;AppModule -->
<g id="edge21" class="edge">
<title>ListaFuncDoCargoComponent&#45;&gt;AppModule</title>
<path fill="none" stroke="black" d="M672,-84.97C672,-106.3 672,-138.8 672,-138.8 672,-138.8 2222.95,-138.8 2222.95,-138.8"/>
<polygon fill="black" stroke="black" points="2222.95,-142.3 2232.95,-138.8 2222.95,-135.3 2222.95,-142.3"/>
</g>
<!-- ListaMentorComCargoComponent -->
<g id="node22" class="node">
<title>ListaMentorComCargoComponent</title>
<polygon fill="#ffffb3" stroke="black" points="559.97,-84.8 348.03,-84.8 348.03,-48.8 559.97,-48.8 559.97,-84.8"/>
<text text-anchor="middle" x="454" y="-62.6" font-family="Times,serif" font-size="14.00">ListaMentorComCargoComponent</text>
</g>
<!-- ListaMentorComCargoComponent&#45;&gt;AppModule -->
<g id="edge22" class="edge">
<title>ListaMentorComCargoComponent&#45;&gt;AppModule</title>
<path fill="none" stroke="black" d="M454,-84.96C454,-107.15 454,-141.8 454,-141.8 454,-141.8 2223.11,-141.8 2223.11,-141.8"/>
<polygon fill="black" stroke="black" points="2223.11,-145.3 2233.11,-141.8 2223.11,-138.3 2223.11,-145.3"/>
</g>
<!-- LoginComponent -->
<g id="node23" class="node">
<title>LoginComponent</title>
<polygon fill="#ffffb3" stroke="black" points="330.28,-84.8 215.72,-84.8 215.72,-48.8 330.28,-48.8 330.28,-84.8"/>
<text text-anchor="middle" x="273" y="-62.6" font-family="Times,serif" font-size="14.00">LoginComponent</text>
</g>
<!-- LoginComponent&#45;&gt;AppModule -->
<g id="edge23" class="edge">
<title>LoginComponent&#45;&gt;AppModule</title>
<path fill="none" stroke="black" d="M273,-84.89C273,-107.93 273,-144.8 273,-144.8 273,-144.8 2223.19,-144.8 2223.19,-144.8"/>
<polygon fill="black" stroke="black" points="2223.19,-148.3 2233.19,-144.8 2223.19,-141.3 2223.19,-148.3"/>
</g>
<!-- MentorDoCargoComponent -->
<g id="node24" class="node">
<title>MentorDoCargoComponent</title>
<polygon fill="#ffffb3" stroke="black" points="197.86,-84.8 24.14,-84.8 24.14,-48.8 197.86,-48.8 197.86,-84.8"/>
<text text-anchor="middle" x="111" y="-62.6" font-family="Times,serif" font-size="14.00">MentorDoCargoComponent</text>
</g>
<!-- MentorDoCargoComponent&#45;&gt;AppModule -->
<g id="edge24" class="edge">
<title>MentorDoCargoComponent&#45;&gt;AppModule</title>
<path fill="none" stroke="black" d="M111,-85.18C111,-109.08 111,-147.8 111,-147.8 111,-147.8 2223.22,-147.8 2223.22,-147.8"/>
<polygon fill="black" stroke="black" points="2223.22,-151.3 2233.22,-147.8 2223.22,-144.3 2223.22,-151.3"/>
</g>
<!-- AppComponent  -->
<g id="node27" class="node">
<title>AppComponent </title>
<polygon fill="#80b1d3" stroke="black" points="2329.44,-214.8 2220.56,-214.8 2220.56,-178.8 2329.44,-178.8 2329.44,-214.8"/>
<text text-anchor="middle" x="2275" y="-192.6" font-family="Times,serif" font-size="14.00">AppComponent </text>
</g>
<!-- AppModule&#45;&gt;AppComponent  -->
<g id="edge26" class="edge">
<title>AppModule&#45;&gt;AppComponent </title>
<path fill="none" stroke="black" stroke-dasharray="1,5" d="M2275,-149.91C2275,-149.91 2275,-168.79 2275,-168.79"/>
<polygon fill="black" stroke="black" points="2271.5,-168.79 2275,-178.79 2278.5,-168.79 2271.5,-168.79"/>
</g>
<!-- AppRoutingModule -->
<g id="node26" class="node">
<title>AppRoutingModule</title>
<polygon fill="#8dd3c7" stroke="black" points="4489.27,-84.8 4486.27,-88.8 4465.27,-88.8 4462.27,-84.8 4360.73,-84.8 4360.73,-48.8 4489.27,-48.8 4489.27,-84.8"/>
<text text-anchor="middle" x="4425" y="-62.6" font-family="Times,serif" font-size="14.00">AppRoutingModule</text>
</g>
<!-- AppRoutingModule&#45;&gt;AppModule -->
<g id="edge25" class="edge">
<title>AppRoutingModule&#45;&gt;AppModule</title>
<path fill="none" stroke="black" d="M4425,-85.18C4425,-109.08 4425,-147.8 4425,-147.8 4425,-147.8 2326.98,-147.8 2326.98,-147.8"/>
<polygon fill="black" stroke="black" points="2326.98,-144.3 2316.98,-147.8 2326.98,-151.3 2326.98,-144.3"/>
</g>
</g>
</svg>
